<mxfile host="app.diagrams.net" modified="2024-05-26T23:44:55.142Z" agent="Mozilla/5.0 (Windows NT 10.0; Win64; x64) AppleWebKit/537.36 (KHTML, like Gecko) Chrome/125.0.0.0 Safari/537.36" etag="bt20a3BYXVDrqqRtSMET" version="24.4.7" type="github">
  <diagram id="C5RBs43oDa-KdzZeNtuy" name="Page-1">
    <mxGraphModel dx="1235" dy="665" grid="1" gridSize="10" guides="1" tooltips="1" connect="1" arrows="1" fold="1" page="1" pageScale="1" pageWidth="827" pageHeight="1169" math="0" shadow="0">
      <root>
        <mxCell id="WIyWlLk6GJQsqaUBKTNV-0" />
        <mxCell id="WIyWlLk6GJQsqaUBKTNV-1" parent="WIyWlLk6GJQsqaUBKTNV-0" />
        <mxCell id="rMJRp4YTtnyugoMimaaJ-0" value="admin" style="swimlane;fontStyle=0;childLayout=stackLayout;horizontal=1;startSize=26;fillColor=none;horizontalStack=0;resizeParent=1;resizeParentMax=0;resizeLast=0;collapsible=1;marginBottom=0;whiteSpace=wrap;html=1;" vertex="1" parent="WIyWlLk6GJQsqaUBKTNV-1">
          <mxGeometry x="30" y="40" width="140" height="110" as="geometry" />
        </mxCell>
        <mxCell id="rMJRp4YTtnyugoMimaaJ-2" value="&lt;div&gt;a_id&lt;/div&gt;&lt;div&gt;a_password&lt;/div&gt;&lt;div&gt;a_name&lt;/div&gt;&lt;div&gt;&lt;br&gt;&lt;/div&gt;" style="text;strokeColor=none;fillColor=none;align=left;verticalAlign=top;spacingLeft=4;spacingRight=4;overflow=hidden;rotatable=0;points=[[0,0.5],[1,0.5]];portConstraint=eastwest;whiteSpace=wrap;html=1;" vertex="1" parent="rMJRp4YTtnyugoMimaaJ-0">
          <mxGeometry y="26" width="140" height="84" as="geometry" />
        </mxCell>
        <mxCell id="rMJRp4YTtnyugoMimaaJ-5" value="doctor" style="swimlane;fontStyle=0;childLayout=stackLayout;horizontal=1;startSize=26;fillColor=none;horizontalStack=0;resizeParent=1;resizeParentMax=0;resizeLast=0;collapsible=1;marginBottom=0;whiteSpace=wrap;html=1;" vertex="1" parent="WIyWlLk6GJQsqaUBKTNV-1">
          <mxGeometry x="250" y="40" width="140" height="140" as="geometry" />
        </mxCell>
        <mxCell id="rMJRp4YTtnyugoMimaaJ-6" value="&lt;div&gt;&lt;div&gt;d_id&lt;/div&gt;&lt;div&gt;d_password&lt;/div&gt;&lt;div&gt;d_name&lt;/div&gt;&lt;div&gt;d_post&lt;/div&gt;&lt;div&gt;d_gender&lt;/div&gt;&lt;div&gt;d_state&lt;/div&gt;&lt;/div&gt;&lt;div&gt;&lt;br&gt;&lt;/div&gt;" style="text;strokeColor=none;fillColor=none;align=left;verticalAlign=top;spacingLeft=4;spacingRight=4;overflow=hidden;rotatable=0;points=[[0,0.5],[1,0.5]];portConstraint=eastwest;whiteSpace=wrap;html=1;" vertex="1" parent="rMJRp4YTtnyugoMimaaJ-5">
          <mxGeometry y="26" width="140" height="114" as="geometry" />
        </mxCell>
        <mxCell id="rMJRp4YTtnyugoMimaaJ-7" value="infection" style="swimlane;fontStyle=0;childLayout=stackLayout;horizontal=1;startSize=26;fillColor=none;horizontalStack=0;resizeParent=1;resizeParentMax=0;resizeLast=0;collapsible=1;marginBottom=0;whiteSpace=wrap;html=1;" vertex="1" parent="WIyWlLk6GJQsqaUBKTNV-1">
          <mxGeometry x="40" y="260" width="140" height="180" as="geometry" />
        </mxCell>
        <mxCell id="rMJRp4YTtnyugoMimaaJ-8" value="&lt;div&gt;&lt;div&gt;h_id&lt;/div&gt;&lt;div&gt;p_id&lt;/div&gt;&lt;div&gt;hpv_discovery_time&lt;/div&gt;&lt;div&gt;hpv_treatment_status&lt;/div&gt;&lt;div&gt;tct_result&lt;/div&gt;&lt;div&gt;cin_discovery_time&lt;/div&gt;&lt;div&gt;cin_grade&lt;/div&gt;&lt;div&gt;squamous_cell_antigen&lt;/div&gt;&lt;div&gt;treatment_plan&lt;/div&gt;&lt;/div&gt;&lt;div&gt;&lt;br&gt;&lt;/div&gt;" style="text;strokeColor=none;fillColor=none;align=left;verticalAlign=top;spacingLeft=4;spacingRight=4;overflow=hidden;rotatable=0;points=[[0,0.5],[1,0.5]];portConstraint=eastwest;whiteSpace=wrap;html=1;" vertex="1" parent="rMJRp4YTtnyugoMimaaJ-7">
          <mxGeometry y="26" width="140" height="154" as="geometry" />
        </mxCell>
        <mxCell id="rMJRp4YTtnyugoMimaaJ-9" value="hematology_report" style="swimlane;fontStyle=0;childLayout=stackLayout;horizontal=1;startSize=26;fillColor=none;horizontalStack=0;resizeParent=1;resizeParentMax=0;resizeLast=0;collapsible=1;marginBottom=0;whiteSpace=wrap;html=1;" vertex="1" parent="WIyWlLk6GJQsqaUBKTNV-1">
          <mxGeometry x="470" y="40" width="140" height="190" as="geometry" />
        </mxCell>
        <mxCell id="rMJRp4YTtnyugoMimaaJ-10" value="&lt;div&gt;&lt;div&gt;r_id&lt;/div&gt;&lt;div&gt;p_id&lt;/div&gt;&lt;div&gt;cd4&lt;/div&gt;&lt;div&gt;cd8&lt;/div&gt;&lt;div&gt;white_blood_cell&lt;/div&gt;&lt;div&gt;neutrophil_ratio_percentage&lt;/div&gt;&lt;div&gt;lymphocyte_count&lt;/div&gt;&lt;div&gt;platelet&lt;/div&gt;&lt;div&gt;r_date&lt;/div&gt;&lt;/div&gt;&lt;div&gt;&lt;br&gt;&lt;/div&gt;" style="text;strokeColor=none;fillColor=none;align=left;verticalAlign=top;spacingLeft=4;spacingRight=4;overflow=hidden;rotatable=0;points=[[0,0.5],[1,0.5]];portConstraint=eastwest;whiteSpace=wrap;html=1;" vertex="1" parent="rMJRp4YTtnyugoMimaaJ-9">
          <mxGeometry y="26" width="140" height="164" as="geometry" />
        </mxCell>
        <mxCell id="rMJRp4YTtnyugoMimaaJ-11" value="patient" style="swimlane;fontStyle=0;childLayout=stackLayout;horizontal=1;startSize=26;fillColor=none;horizontalStack=0;resizeParent=1;resizeParentMax=0;resizeLast=0;collapsible=1;marginBottom=0;whiteSpace=wrap;html=1;" vertex="1" parent="WIyWlLk6GJQsqaUBKTNV-1">
          <mxGeometry x="260" y="260" width="140" height="180" as="geometry" />
        </mxCell>
        <mxCell id="rMJRp4YTtnyugoMimaaJ-12" value="&lt;div&gt;&lt;div&gt;&lt;div&gt;p_id&lt;/div&gt;&lt;div&gt;p_phone&lt;/div&gt;&lt;div&gt;p_name&lt;/div&gt;&lt;div&gt;p_age&lt;/div&gt;&lt;div&gt;hospitalization_id&lt;/div&gt;&lt;div&gt;p_height&lt;/div&gt;&lt;div&gt;p_weight&lt;/div&gt;&lt;div&gt;p_education&lt;/div&gt;&lt;/div&gt;&lt;/div&gt;&lt;div&gt;&lt;br&gt;&lt;/div&gt;" style="text;strokeColor=none;fillColor=none;align=left;verticalAlign=top;spacingLeft=4;spacingRight=4;overflow=hidden;rotatable=0;points=[[0,0.5],[1,0.5]];portConstraint=eastwest;whiteSpace=wrap;html=1;" vertex="1" parent="rMJRp4YTtnyugoMimaaJ-11">
          <mxGeometry y="26" width="140" height="154" as="geometry" />
        </mxCell>
        <mxCell id="rMJRp4YTtnyugoMimaaJ-13" value="surgery" style="swimlane;fontStyle=0;childLayout=stackLayout;horizontal=1;startSize=26;fillColor=none;horizontalStack=0;resizeParent=1;resizeParentMax=0;resizeLast=0;collapsible=1;marginBottom=0;whiteSpace=wrap;html=1;" vertex="1" parent="WIyWlLk6GJQsqaUBKTNV-1">
          <mxGeometry x="480" y="260" width="140" height="180" as="geometry" />
        </mxCell>
        <mxCell id="rMJRp4YTtnyugoMimaaJ-14" value="&lt;div&gt;&lt;div&gt;&lt;div&gt;&lt;div&gt;s_id&lt;/div&gt;&lt;div&gt;s_type&lt;/div&gt;&lt;div&gt;s_postdiagnosis&lt;/div&gt;&lt;div&gt;s_postcare&lt;/div&gt;&lt;div&gt;s_date&lt;/div&gt;&lt;div&gt;p_id&lt;/div&gt;&lt;/div&gt;&lt;/div&gt;&lt;/div&gt;&lt;div&gt;&lt;br&gt;&lt;/div&gt;" style="text;strokeColor=none;fillColor=none;align=left;verticalAlign=top;spacingLeft=4;spacingRight=4;overflow=hidden;rotatable=0;points=[[0,0.5],[1,0.5]];portConstraint=eastwest;whiteSpace=wrap;html=1;" vertex="1" parent="rMJRp4YTtnyugoMimaaJ-13">
          <mxGeometry y="26" width="140" height="154" as="geometry" />
        </mxCell>
        <mxCell id="rMJRp4YTtnyugoMimaaJ-16" value="arrange" style="swimlane;fontStyle=0;childLayout=stackLayout;horizontal=1;startSize=26;fillColor=none;horizontalStack=0;resizeParent=1;resizeParentMax=0;resizeLast=0;collapsible=1;marginBottom=0;whiteSpace=wrap;html=1;" vertex="1" parent="WIyWlLk6GJQsqaUBKTNV-1">
          <mxGeometry x="40" y="475" width="140" height="110" as="geometry" />
        </mxCell>
        <mxCell id="rMJRp4YTtnyugoMimaaJ-17" value="&lt;div&gt;&lt;div&gt;ar_id&lt;/div&gt;&lt;div&gt;ar_time&lt;/div&gt;&lt;div&gt;d_id&lt;/div&gt;&lt;/div&gt;&lt;div&gt;&lt;br&gt;&lt;/div&gt;" style="text;strokeColor=none;fillColor=none;align=left;verticalAlign=top;spacingLeft=4;spacingRight=4;overflow=hidden;rotatable=0;points=[[0,0.5],[1,0.5]];portConstraint=eastwest;whiteSpace=wrap;html=1;" vertex="1" parent="rMJRp4YTtnyugoMimaaJ-16">
          <mxGeometry y="26" width="140" height="84" as="geometry" />
        </mxCell>
        <mxCell id="rMJRp4YTtnyugoMimaaJ-18" value="order" style="swimlane;fontStyle=0;childLayout=stackLayout;horizontal=1;startSize=26;fillColor=none;horizontalStack=0;resizeParent=1;resizeParentMax=0;resizeLast=0;collapsible=1;marginBottom=0;whiteSpace=wrap;html=1;" vertex="1" parent="WIyWlLk6GJQsqaUBKTNV-1">
          <mxGeometry x="260" y="475" width="140" height="160" as="geometry" />
        </mxCell>
        <mxCell id="rMJRp4YTtnyugoMimaaJ-19" value="&lt;div&gt;&lt;div&gt;o_id&lt;/div&gt;&lt;div&gt;p_id&lt;/div&gt;&lt;div&gt;d_id&lt;/div&gt;&lt;div&gt;o_record&lt;/div&gt;&lt;div&gt;o_start&lt;/div&gt;&lt;div&gt;o_end&lt;/div&gt;&lt;div&gt;o_state&lt;/div&gt;&lt;/div&gt;&lt;div&gt;&lt;br&gt;&lt;/div&gt;" style="text;strokeColor=none;fillColor=none;align=left;verticalAlign=top;spacingLeft=4;spacingRight=4;overflow=hidden;rotatable=0;points=[[0,0.5],[1,0.5]];portConstraint=eastwest;whiteSpace=wrap;html=1;" vertex="1" parent="rMJRp4YTtnyugoMimaaJ-18">
          <mxGeometry y="26" width="140" height="134" as="geometry" />
        </mxCell>
      </root>
    </mxGraphModel>
  </diagram>
</mxfile>
